<?xml version="1.0" encoding="UTF-8"?>
<svg version="1.1" xmlns="http://www.w3.org/2000/svg" width="4221" height="740">
<path d="M0 0 C0.30820204 48.34274235 0.59476375 96.68555481 0.76217651 145.02900696 C0.76466154 145.74476863 0.76714657 146.46053029 0.7697069 147.19798171 C0.82358217 162.75428441 0.87344502 178.31059756 0.91917593 193.86692629 C0.94162753 201.4960033 0.96496556 209.12507749 0.98876953 216.75415039 C0.99112319 217.51332545 0.99347686 218.27250052 0.99590184 219.05468088 C1.07257487 243.6516337 1.20775338 268.24784107 1.37334997 292.84434247 C1.54324604 318.12543876 1.65396273 343.40612271 1.69046982 368.68778023 C1.69565643 372.26050599 1.70151789 375.83323035 1.70779037 379.40595436 C1.70900399 380.10910146 1.7102176 380.81224855 1.71146799 381.53670314 C1.73272041 392.84522496 1.81615075 404.15246994 1.92297661 415.4604715 C2.02910477 426.83562665 2.06793223 438.20913679 2.04302479 449.58490583 C2.03149219 455.74681993 2.04917198 461.904995 2.14569855 468.06624413 C2.23350336 473.71208007 2.23762008 479.35167684 2.17618011 484.99780414 C2.16859212 487.03583309 2.19128897 489.07425599 2.24789728 491.11151274 C2.63511924 505.9120158 2.63511924 505.9120158 -1.77977362 511.08564104 C-6.09227926 514.96869867 -10.84458509 517.99106844 -15.89625432 520.81890903 C-18.5500761 522.30882531 -21.0590612 523.98570663 -23.578125 525.69140625 C-25.12982788 526.65747267 -26.68706458 527.61471361 -28.25 528.5625 C-29.11802246 529.09222412 -29.98604492 529.62194824 -30.88037109 530.16772461 C-57.60293009 546.31969662 -85.56711393 558.64124281 -115 569 C-115.85271484 569.30083496 -116.70542969 569.60166992 -117.58398438 569.91162109 C-129.25670841 574 -129.25670841 574 -133 574 C-133 628.78 -133 683.56 -133 740 C-160.27115854 740 -160.27115854 740 -172.5 739.25 C-173.58152847 739.18564758 -173.58152847 739.18564758 -174.68490601 739.11999512 C-254.97590503 734.26957049 -335.75607848 718.75498583 -459.3127386 654.80874443 C-461.95069928 652.94086759 -461.95069928 652.94086759 -464.84459335 651.62556648 C-468.71291971 649.51394149 -472.18479794 647.47587322 -473.6301962 643.08601332 C-474.69254688 637.01824609 -474.42617363 630.84908926 -474.32279968 624.71435547 C-474.32759741 622.60791171 -474.3372305 620.50147435 -474.35128051 618.39507198 C-474.37588293 612.60890437 -474.33187646 606.82497555 -474.27672184 601.03909326 C-474.22923761 594.79923098 -474.24529242 588.5594959 -474.25364685 582.31950378 C-474.25941606 571.50910617 -474.22527574 560.69960848 -474.16303062 549.88943481 C-474.09792294 538.55303487 -474.05560135 527.21692613 -474.04364967 515.88034058 C-474.04289354 515.17523998 -474.0421374 514.47013939 -474.04135835 513.74367211 C-474.03763664 510.16276118 -474.03432144 506.58185 -474.03116272 503.00093853 C-474.00806362 477.64316845 -473.93396838 452.28577859 -473.82983398 426.92822266 C-473.72879142 402.29510519 -473.65087864 377.6620918 -473.60424805 353.02880859 C-473.60280126 352.26938634 -473.60135447 351.50996409 -473.59986384 350.72752905 C-473.58536001 343.10103622 -473.57132607 335.47454258 -473.55763639 327.84804824 C-473.52973871 312.31226749 -473.49870494 296.77649352 -473.46577454 281.24072266 C-473.46426435 280.52642711 -473.46275416 279.81213157 -473.4611982 279.07619071 C-473.36000611 231.38396556 -473.18548175 183.69196401 -473 136 C-469.04008968 137.50339845 -466.19839288 139.22985056 -462.875 141.875 C-426.82078366 169.71207517 -383.53592127 186.11242756 -341 201 C-341 166.35 -341 131.7 -341 96 C-332.729375 95.5875 -324.45875 95.175 -315.9375 94.75 C-292.86629776 93.52460647 -269.92529342 91.88583958 -247 89 C-246.27629211 88.90889954 -245.55258423 88.81779907 -244.8069458 88.72393799 C-179.3846514 80.39746415 -115.00940451 63.88938582 -56 34 C-55.14809082 33.57654297 -54.29618164 33.15308594 -53.41845703 32.71679688 C-36.79157805 24.44432643 -21.25422977 14.51383822 -6.49121094 3.25024414 C-2.19983962 -0 -2.19983962 -0 0 0 Z " fill="#06AFF1" transform="translate(473,0)"/>
<path d="M0 0 C0.30820204 48.34274235 0.59476375 96.68555481 0.76217651 145.02900696 C0.76466154 145.74476863 0.76714657 146.46053029 0.7697069 147.19798171 C0.82358217 162.75428441 0.87344502 178.31059756 0.91917593 193.86692629 C0.94162753 201.4960033 0.96496556 209.12507749 0.98876953 216.75415039 C0.99112319 217.51332545 0.99347686 218.27250052 0.99590184 219.05468088 C1.07257487 243.6516337 1.20775338 268.24784107 1.37334997 292.84434247 C1.54324604 318.12543876 1.65396273 343.40612271 1.69046982 368.68778023 C1.69565643 372.26050599 1.70151789 375.83323035 1.70779037 379.40595436 C1.70900399 380.10910146 1.7102176 380.81224855 1.71146799 381.53670314 C1.73272041 392.84522496 1.81615075 404.15246994 1.92297661 415.4604715 C2.02910477 426.83562665 2.06793223 438.20913679 2.04302479 449.58490583 C2.03149219 455.74681993 2.04917198 461.904995 2.14569855 468.06624413 C2.23350336 473.71208007 2.23762008 479.35167684 2.17618011 484.99780414 C2.16859212 487.03583309 2.19128897 489.07425599 2.24789728 491.11151274 C2.63511924 505.9120158 2.63511924 505.9120158 -1.77977362 511.08564104 C-6.09227926 514.96869867 -10.84458509 517.99106844 -15.89625432 520.81890903 C-18.5500761 522.30882531 -21.0590612 523.98570663 -23.578125 525.69140625 C-25.12982788 526.65747267 -26.68706458 527.61471361 -28.25 528.5625 C-29.11802246 529.09222412 -29.98604492 529.62194824 -30.88037109 530.16772461 C-57.60293009 546.31969662 -85.56711393 558.64124281 -115 569 C-115.85271484 569.30083496 -116.70542969 569.60166992 -117.58398438 569.91162109 C-129.25670841 574 -129.25670841 574 -133 574 C-133 461.14 -133 348.28 -133 232 C-139.93 232 -146.86 232 -154 232 C-159.861951 231.78232161 -165.708634 231.53347355 -171.5625 231.1875 C-172.32559479 231.14398407 -173.08868958 231.10046814 -173.87490845 231.05563354 C-187.56151847 230.26739946 -201.16669084 229.01605709 -214.77978516 227.38232422 C-217.92823892 227.00851993 -221.07851703 226.65932347 -224.23046875 226.31640625 C-318.74084604 215.83943597 -318.74084604 215.83943597 -341 201 C-341.36914349 199.11408043 -341.36914349 199.11408043 -341.36076355 196.77328491 C-341.36488754 195.88704941 -341.36901154 195.0008139 -341.3732605 194.08772278 C-341.36247467 193.11308578 -341.35168884 192.13844879 -341.34057617 191.13427734 C-341.34101425 190.10986038 -341.34145233 189.08544342 -341.34190369 188.02998352 C-341.33980766 184.63177669 -341.31643798 181.23405852 -341.29296875 177.8359375 C-341.2873757 175.48467275 -341.28310423 173.1334045 -341.28010559 170.78213501 C-341.26863397 164.58421224 -341.23914676 158.38649934 -341.20599365 152.18865967 C-341.17534271 145.8679895 -341.1616109 139.54728552 -341.14648438 133.2265625 C-341.11427937 120.81761597 -341.06305501 108.40882541 -341 96 C-339.98084314 95.94976716 -339.98084314 95.94976716 -338.94109726 95.89851952 C-308.2061156 94.38122706 -277.54750422 92.84532469 -247 89 C-246.27629211 88.90889954 -245.55258423 88.81779907 -244.8069458 88.72393799 C-179.3846514 80.39746415 -115.00940451 63.88938582 -56 34 C-55.14809082 33.57654297 -54.29618164 33.15308594 -53.41845703 32.71679688 C-36.79157805 24.44432643 -21.25422977 14.51383822 -6.49121094 3.25024414 C-2.19983962 -0 -2.19983962 -0 0 0 Z " fill="#3081AB" transform="translate(473,0)"/>
<path d="M0 0 C25.08 0 50.16 0 76 0 C85.17354554 33.25410259 85.17354554 33.25410259 89.22265625 49.08203125 C89.68589057 50.88415641 90.14939592 52.68621192 90.61314392 54.48820496 C91.59191312 58.29283816 92.56935303 62.09780893 93.5456543 65.90307617 C96.18093036 76.17287687 98.82698124 86.43990557 101.47265625 96.70703125 C101.74323475 97.75732639 102.01381325 98.80762154 102.29259109 99.8897438 C110.45363661 131.56340288 118.73840415 163.20472652 127.03089905 194.84417725 C129.81769853 205.47805455 132.59597812 216.11411836 135.36782074 226.75190353 C136.5054833 231.11644574 137.64503084 235.48049604 138.78480148 239.84448814 C139.65985315 243.19544005 140.53375233 246.54668264 141.40478516 249.89868164 C142.33706062 253.48405578 143.27345578 257.06832803 144.2109375 260.65234375 C144.48263763 261.70171616 144.75433777 262.75108856 145.03427124 263.83226013 C145.28125763 264.77311966 145.52824402 265.71397919 145.78271484 266.68334961 C145.9953598 267.49936142 146.20800476 268.31537323 146.42709351 269.15611267 C146.84238442 270.99753611 146.84238442 270.99753611 148 272 C151.68868604 260.20870414 155.37609318 248.41700863 159.0625 236.625 C159.34342499 235.72638245 159.62434998 234.82776489 159.91378784 233.9019165 C168.60229973 206.10797926 177.26442257 178.3059806 185.89859009 150.49511719 C191.45184563 132.60859709 197.0183752 114.72632428 202.609375 96.8515625 C202.88726868 95.96300316 203.16516235 95.07444382 203.45147705 94.15895844 C206.15338551 85.51979781 208.85622701 76.88093165 211.56274414 68.24321365 C212.79794254 64.30044626 214.03202154 60.35732917 215.265625 56.4140625 C215.50292328 55.65574379 215.74022156 54.89742508 215.98471069 54.11612701 C218.73356602 45.32692488 221.45690863 36.53040892 224.14257812 27.72167969 C224.39856152 26.88214186 224.65454491 26.04260403 224.91828537 25.17762566 C226.14863988 21.13958937 227.37592879 17.10064836 228.59918213 13.06045532 C229.03584515 11.62282222 229.47251085 10.18518993 229.90917969 8.74755859 C230.48040558 6.86017471 230.48040558 6.86017471 231.06317139 4.93466187 C232 2 232 2 233 0 C255.44 0 277.88 0 301 0 C304.3754836 9.0012896 304.3754836 9.0012896 305.70727539 13.29614258 C306.01006912 14.26875534 306.31286285 15.2413681 306.62483215 16.24345398 C306.94586411 17.28330948 307.26689606 18.32316498 307.59765625 19.39453125 C307.94354294 20.50862869 308.28942963 21.62272614 308.64579773 22.77058411 C309.78728057 26.45042819 310.92504842 30.131408 312.0625 33.8125 C312.46340269 35.10759472 312.86440465 36.40265871 313.26550293 37.69769287 C321.05261106 62.84146579 328.74012456 88.01541921 336.404953 113.19671631 C340.94460539 128.10928927 345.50162687 143.01655351 350.05815506 157.9239769 C351.89890796 163.94640545 353.73939391 169.96891561 355.57992744 175.99141121 C356.04522521 177.51391896 356.51053055 179.0364244 356.97584343 180.55892754 C360.4751214 192.0085623 363.97286936 203.45866369 367.46976852 214.90902519 C369.00699368 219.94243044 370.54442029 224.97577416 372.08184624 230.00911808 C373.31505863 234.04657558 374.54812926 238.08407626 375.78088379 242.12167358 C376.92846562 245.88030515 378.07639559 249.63883021 379.22459221 253.39727402 C379.64634532 254.77805364 380.06796483 256.15887408 380.48944283 257.5397377 C381.06463293 259.42414112 381.64033487 261.30838829 382.21606445 263.19262695 C382.53831497 264.24787064 382.86056549 265.30311432 383.19258118 266.39033508 C383.77324699 268.26710975 384.37875481 270.13626442 385 272 C387.26170962 265.46720438 389.20147136 258.8819991 391.01391602 252.21191406 C391.44573433 250.63468976 391.44573433 250.63468976 391.88627625 249.02560234 C392.84457113 245.52293259 393.79925514 242.01928946 394.75390625 238.515625 C395.44168778 235.99846987 396.12967622 233.48137127 396.81785583 230.96432495 C398.48801067 224.85398169 400.15541238 218.74289037 401.82190031 212.63154614 C403.17612864 207.66565918 404.53161775 202.70011784 405.88793945 197.73480225 C406.08126063 197.02707409 406.27458181 196.31934592 406.4737612 195.59017146 C406.66779135 194.87985093 406.86182149 194.1695304 407.06173134 193.43768501 C415.45377025 162.71545639 423.8237303 131.98722696 432.17912173 101.25501251 C432.77437934 99.0655909 433.36967038 96.87617838 433.96496773 94.68676758 C437.57569866 81.40683599 441.18582852 68.1267424 444.79043704 54.84514749 C446.36598231 49.03994043 447.94267095 43.23504454 449.519701 37.43024063 C450.16417816 35.05696857 450.80817795 32.6835668 451.45165825 30.31002426 C452.33116997 27.06589739 453.21228518 23.82220993 454.09375 20.57861328 C454.34598107 19.64653172 454.59821215 18.71445015 454.85808659 17.75412369 C455.09763286 16.87387402 455.33717913 15.99362434 455.58398438 15.08670044 C455.78648804 14.34037416 455.9889917 13.59404789 456.19763184 12.82510567 C457.41585766 8.53578208 458.71872577 4.27091411 460 0 C483.1 0 506.2 0 530 0 C529.27867008 5.04930947 528.38959947 9.59894167 526.95654297 14.43554688 C526.64520039 15.5076302 526.64520039 15.5076302 526.32756805 16.60137177 C525.6369635 18.97517593 524.9395805 21.34693215 524.2421875 23.71875 C523.74621029 25.41857792 523.25066633 27.11853231 522.75552368 28.81860352 C521.69226464 32.46591006 520.62600708 36.11232134 519.55737305 39.75805664 C517.85194534 45.57627853 516.15305447 51.39639674 514.45507812 57.21679688 C512.1115178 65.24811868 509.76519218 73.27862735 507.41699219 81.30859375 C504.30440768 91.95356635 501.20051427 102.60105143 498.1015625 113.25 C497.86828625 114.05158035 497.63500999 114.85316071 497.39466476 115.67903137 C496.45995278 118.89098176 495.52529838 122.10294889 494.59075737 125.31494904 C492.95107939 130.95042279 491.31050602 136.58563529 489.66943359 142.22070312 C482.08055486 168.27975269 474.50346141 194.34222127 466.92907715 220.40548706 C461.21274754 240.07511558 455.4938296 259.74398227 449.765625 279.41015625 C449.25546186 281.16176328 448.7452995 282.91337054 448.23513794 284.66497803 C446.25598866 291.46004942 444.27680035 298.25510933 442.29656982 305.04986572 C437.74759582 320.65890598 433.20113964 336.26846097 428.7109375 351.89453125 C428.39475464 352.99396561 428.07857178 354.09339996 427.75280762 355.22615051 C426.34331789 360.12872041 424.93719585 365.03220186 423.53808594 369.93774414 C423.06975883 371.57050319 422.6013415 373.20323637 422.1328125 374.8359375 C421.92675385 375.56388016 421.72069519 376.29182281 421.50839233 377.04182434 C420.11341934 381.88658066 420.11341934 381.88658066 419 383 C416.97505769 383.09409479 414.9468013 383.11743122 412.91967773 383.11352539 C410.96776772 383.11341209 410.96776772 383.11341209 408.97642517 383.11329651 C407.54548098 383.10818909 406.11453718 383.10297308 404.68359375 383.09765625 C403.2277074 383.09579203 401.77182043 383.09436815 400.31593323 383.09336853 C396.47720621 383.08954365 392.63851681 383.07971364 388.79980469 383.06866455 C384.88542184 383.05844978 380.97103294 383.05387077 377.05664062 383.04882812 C369.37107657 383.03809134 361.68554355 383.02101529 354 383 C350.81112754 375.47415485 348.30932196 367.83932033 345.97265625 360.01171875 C345.38791087 358.07382567 344.8031643 356.13593296 344.21837425 354.19805336 C343.59499712 352.12923217 342.97382479 350.05976079 342.353302 347.99008179 C341.03632845 343.59785777 339.71296637 339.20757469 338.38842773 334.81762695 C337.93097314 333.3012577 337.47352998 331.78488499 337.01609802 330.26850891 C336.78733915 329.51018579 336.55858028 328.75186268 336.32288933 327.97056007 C335.61987618 325.63925862 334.91746353 323.30777702 334.21522522 320.97624207 C329.57838755 305.58331574 324.89936846 290.20333591 320.21375656 274.82519913 C319.11872537 271.2308442 318.02433711 267.63629354 316.92993164 264.04174805 C315.38742931 258.97555634 313.84480467 253.90940192 312.30196095 248.84331417 C308.35351128 235.8780956 304.40759186 222.91210719 300.46176338 209.9460907 C298.94702901 204.96872287 297.43206209 199.99142586 295.91699219 195.01416016 C291.80101211 181.49215944 287.68628889 167.96977902 283.57510376 154.44631958 C281.86269124 148.81348777 280.14976168 143.18081322 278.43671608 137.5481739 C277.03810844 132.94925843 275.64019522 128.35013263 274.24280262 123.75084782 C273.38147091 120.91651816 272.51947394 118.08239115 271.65729332 115.24831963 C271.06841044 113.31187688 270.48033682 111.37518808 269.89228821 109.43849182 C269.36226448 107.69692055 269.36226448 107.69692055 268.8215332 105.92016602 C268.36361137 104.41366234 268.36361137 104.41366234 267.8964386 102.87672424 C266.97006705 99.9039434 265.99421921 96.9507125 265 94 C254.1266763 129.55666514 243.26002231 165.11533432 232.4375 200.6875 C232.22319462 201.39189083 232.00888924 202.09628166 231.78808975 202.82201767 C229.82898705 209.26145373 227.87012635 215.7009634 225.91151428 222.14054871 C221.76447867 235.77527049 217.61503625 249.40925928 213.46525669 263.04314613 C211.94818035 268.02743371 210.43121115 273.01175388 208.91430664 277.99609375 C204.81035137 291.48106346 200.70606768 304.96593303 196.60089111 318.45053101 C194.89667389 324.0485158 193.19258711 329.6465403 191.48852921 335.24457359 C190.10082405 339.80330664 188.71294544 344.36198684 187.32493401 348.92062664 C186.4672187 351.73776942 185.6096721 354.55496354 184.75217056 357.3721714 C184.17011298 359.28426357 183.58785277 361.19629405 183.00558472 363.10832214 C182.6523111 364.26906754 182.29903748 365.42981293 181.93505859 366.62573242 C181.63199799 367.62118576 181.32893738 368.6166391 181.01669312 369.64225769 C179.66927187 374.09226652 178.33603241 378.54655864 177 383 C155.88 383 134.76 383 113 383 C102.67509704 349.73086823 102.67509704 349.73086823 99.046875 337.2578125 C98.62490818 335.81435935 98.20269845 334.3709772 97.78027344 332.92765808 C96.89307117 329.89497805 96.00717665 326.86192095 95.12243652 323.82852173 C92.96076098 316.41787873 90.7908891 309.0096328 88.62171173 301.60118294 C88.12339698 299.89918371 87.62516207 298.19716111 87.12700653 296.49511528 C82.24288261 279.80776668 77.32252297 263.13128122 72.38573456 246.45944595 C71.7465897 244.30098305 71.10755999 242.1424861 70.46856689 239.98397827 C68.71273351 234.05283502 66.95681462 228.12171711 65.20059204 222.19068909 C59.50115382 202.94186543 53.81291851 183.68973023 48.125 164.4375 C47.85235573 163.51467728 47.57971146 162.59185455 47.29880524 161.6410675 C16.51563261 57.44753261 16.51563261 57.44753261 5.33734131 19.32931519 C4.82835869 17.59394305 4.31897184 15.85868941 3.80914307 14.12356567 C3.14353144 11.8575141 2.47963669 9.59096819 1.81640625 7.32421875 C1.46006104 6.10822998 1.10371582 4.89224121 0.73657227 3.6394043 C0 1 0 1 0 0 Z " fill="#06B0F2" transform="translate(2788,145)"/>
<path d="M0 0 C21.78 0 43.56 0 66 0 C66 134.97 66 269.94 66 409 C45.21 409 24.42 409 3 409 C2.67 397.12 2.34 385.24 2 373 C-1.3 377.29 -4.6 381.58 -8 386 C-27.69229424 405.92672631 -55.02168816 414.93279706 -82.69384766 415.24169922 C-118.70797795 415.32431158 -150.62125785 405.56680683 -176.9375 380.0859375 C-202.25009245 354.88381147 -214.16289747 319.76851963 -214.38037109 284.46191406 C-214.38082294 282.82877512 -214.37899073 281.19563413 -214.375 279.5625 C-214.37445618 278.72473022 -214.37391235 277.88696045 -214.37335205 277.02380371 C-214.33358434 263.68030678 -213.56164681 250.92926582 -210 238 C-209.78569336 237.21334961 -209.57138672 236.42669922 -209.35058594 235.61621094 C-200.4897136 204.26136281 -180.86229899 175.50650708 -152.4921875 158.90625 C-121.45796225 141.96586753 -86.03559789 136.9177304 -51.69140625 146.76928711 C-30.70780515 153.25342126 -16.71753703 164.28246297 -1 180 C-0.67 120.6 -0.34 61.2 0 0 Z M-129.39453125 225.453125 C-143.70391257 241.73705467 -150.31008495 263.50490242 -149 285 C-146.74658703 306.84830832 -137.93632921 325.55955088 -121 340 C-103.39556666 353.05640847 -82.74296347 358.22663672 -61.046875 355.50390625 C-41.7436113 351.98880576 -24.03102768 342.2648345 -12.25 326.25 C0.67214067 306.32449292 5.70390693 284.11356692 0.9675293 260.50830078 C-2.05448854 247.93102549 -8.30081672 235.57468995 -17 226 C-17.65355469 225.25492188 -18.30710937 224.50984375 -18.98046875 223.7421875 C-31.13817683 210.67652672 -48.94469039 202.34778177 -66.8203125 201.6640625 C-91.73506712 201.30280837 -111.65486195 207.27936918 -129.39453125 225.453125 Z " fill="#06B0F2" transform="translate(4010,119)"/>
<path d="M0 0 C8.61037462 7.56512322 15.59157701 15.55824196 21.67578125 25.29296875 C22.00578125 11.76296875 22.33578125 -1.76703125 22.67578125 -15.70703125 C36.86578125 -15.70703125 51.05578125 -15.70703125 65.67578125 -15.70703125 C65.7211167 16.14919038 65.75686644 48.00539957 65.77791191 79.86164588 C65.78041293 83.63367544 65.78300162 87.40570492 65.78564453 91.17773438 C65.78643146 92.30401644 65.78643146 92.30401644 65.78723429 93.45305167 C65.79590611 105.5661698 65.81165806 117.67926869 65.83008684 129.79237546 C65.84887606 142.24747717 65.85991691 154.7025689 65.86395824 167.15768421 C65.86668472 174.82579753 65.87525442 182.49385646 65.89161418 190.16195302 C65.90356612 196.06965175 65.90467009 201.97732348 65.90199661 207.88503456 C65.90254131 210.28818277 65.90644458 212.69133328 65.9141922 215.09446907 C66.04759068 258.65358595 60.22714118 300.79190233 28.67578125 333.29296875 C21.72803999 340.26394661 14.24150964 345.47282768 5.67578125 350.29296875 C4.25845703 351.09541016 4.25845703 351.09541016 2.8125 351.9140625 C-20.18319239 364.15934821 -46.30963882 367.52120202 -72.01171875 367.54296875 C-72.7335434 367.54364349 -73.45536804 367.54431824 -74.19906616 367.54501343 C-120.4127347 367.47690706 -159.93766083 353.65366814 -194.26171875 322.5703125 C-196.32421875 320.29296875 -196.32421875 320.29296875 -196.32421875 317.29296875 C-191.51576061 310.32313296 -185.43134486 304.11756423 -179.64550781 297.94897461 C-176.20897971 294.28507802 -172.94413497 290.52645668 -169.82421875 286.5859375 C-168.32421875 285.29296875 -168.32421875 285.29296875 -164.32421875 285.29296875 C-162.45703125 286.875 -162.45703125 286.875 -160.44921875 289.10546875 C-151.06946798 298.88501217 -140.08768802 306.63384774 -128.32421875 313.29296875 C-127.37289062 313.83695313 -126.4215625 314.3809375 -125.44140625 314.94140625 C-119.77032093 317.98555831 -114.03137889 320.19391949 -107.88671875 322.04296875 C-107.23155273 322.24172607 -106.57638672 322.4404834 -105.90136719 322.64526367 C-94.77658577 325.79656467 -83.59399215 326.65850921 -72.07421875 326.60546875 C-70.80368652 326.6005542 -69.5331543 326.59563965 -68.22412109 326.59057617 C-43.96858135 326.28904422 -20.55733358 320.03329022 -2.71875 302.84765625 C9.73792191 289.5578301 16.13149209 272.44671627 19.36328125 254.79296875 C19.4828418 254.14158936 19.60240234 253.49020996 19.72558594 252.8190918 C21.89985458 239.94521564 21.80497985 226.98921307 21.73828125 213.98046875 C21.7332523 212.25716277 21.72869188 210.53385536 21.72460938 208.81054688 C21.71372325 204.63798466 21.6965369 200.46549307 21.67578125 196.29296875 C20.94552734 197.24051025 20.21527344 198.18805176 19.46289062 199.16430664 C18.48197831 200.42740725 17.5008468 201.69033765 16.51953125 202.953125 C16.0409668 203.57529907 15.56240234 204.19747314 15.06933594 204.83850098 C-0.78102178 225.17845918 -25.00714566 236.3087402 -50.01171875 240.60546875 C-85.79080131 244.85806828 -124.42886539 236.99417857 -153.30859375 214.73828125 C-157.81394347 211.08497953 -162.12956947 207.29798651 -166.32421875 203.29296875 C-166.92363281 202.75671875 -167.52304688 202.22046875 -168.140625 201.66796875 C-191.473923 180.0129358 -201.2127098 145.97648862 -202.44921875 115.1796875 C-203.16773721 76.96348688 -192.04977066 40.97546674 -165.51171875 13.04296875 C-145.65727559 -6.03103246 -119.36151178 -16.93573501 -92.32421875 -20.70703125 C-91.67557861 -20.79911865 -91.02693848 -20.89120605 -90.35864258 -20.98608398 C-59.20095575 -24.97166098 -24.80496948 -20.82017593 0 0 Z M-123.32421875 37.29296875 C-123.94425781 37.76089844 -124.56429687 38.22882813 -125.203125 38.7109375 C-142.5406454 52.55768198 -152.89912931 76.70534226 -155.32421875 98.29296875 C-156.6836579 126.97028484 -151.21715876 150.95867963 -132.38671875 173.16796875 C-116.81107586 189.72282691 -94.43972618 200.58627178 -71.69921875 201.5078125 C-48.08726378 202.12623714 -24.82035425 196.21666091 -7.01171875 179.98046875 C12.58126547 161.33041093 22.07333241 137.58271379 22.98828125 110.66796875 C22.33457386 83.61174611 13.86914711 58.66293458 -5.83105469 39.64501953 C-25.975122 21.40469174 -51.00493418 17.36821981 -77.15039062 18.12255859 C-94.30915494 19.04385225 -109.92893243 26.84115317 -123.32421875 37.29296875 Z " fill="#231F20" transform="translate(2701.32421875,289.70703125)"/>
<path d="M0 0 C2.52096309 2.2275585 4.98034211 4.50638231 7.42578125 6.81640625 C8.17601563 7.5021875 8.92625 8.18796875 9.69921875 8.89453125 C26.65158906 24.95467154 37.85715623 47.35039261 43.42578125 69.81640625 C43.6882666 70.82743408 43.6882666 70.82743408 43.95605469 71.85888672 C49.08014668 92.48208864 48.61216713 118.26994645 43.42578125 138.81640625 C43.25949219 139.51008301 43.09320312 140.20375977 42.921875 140.91845703 C34.95676994 173.42051072 13.96799352 202.30706194 -14.57421875 219.81640625 C-49.39937297 240.56588838 -92.66668051 246.86811943 -132.09472656 237.19824219 C-153.63424574 231.59943414 -173.68394572 222.4951869 -190.57421875 207.81640625 C-191.45464844 207.08035156 -192.33507813 206.34429687 -193.2421875 205.5859375 C-218.34965239 183.87807293 -232.07299508 152.37506247 -235.57421875 119.81640625 C-235.85542589 114.72911352 -235.90866333 109.66072906 -235.88671875 104.56640625 C-235.88489594 103.89075623 -235.88307312 103.2151062 -235.88119507 102.51898193 C-235.83218596 91.6894048 -235.17679255 81.34300317 -232.57421875 70.81640625 C-232.41324707 70.13046387 -232.25227539 69.44452148 -232.08642578 68.73779297 C-224.07903384 35.4544261 -202.6381742 6.64184621 -173.57421875 -11.18359375 C-121.7343416 -42.73776081 -46.86473465 -39.75324229 0 0 Z M-150.81640625 51.2578125 C-166.99263034 70.76084494 -171.11339787 92.09283805 -169.57421875 116.81640625 C-167.45734903 135.90617051 -156.6967676 153.24576094 -142.40625 165.6484375 C-124.93738283 179.02115651 -104.37730228 184.07936026 -82.640625 181.31640625 C-62.33354823 177.65822251 -45.0264949 167.09834599 -32.453125 150.6640625 C-19.78334429 131.46183768 -16.19680955 108.75598376 -20.5 86.40234375 C-24.96048978 66.00787469 -37.07075083 49.04813976 -54.57421875 37.81640625 C-85.69255875 20.04900168 -126.22847771 24.48524222 -150.81640625 51.2578125 Z " fill="#06B0F2" transform="translate(3532.57421875,293.18359375)"/>
<path d="M0 0 C14.19 0 28.38 0 43 0 C43 134.97 43 269.94 43 409 C28.81 409 14.62 409 0 409 C-0.33 394.81 -0.66 380.62 -1 366 C-3.64 369.63 -6.28 373.26 -9 377 C-26.0349444 398.0771346 -52.96798562 411.3442885 -79.65234375 414.68359375 C-115.0155828 417.71472853 -149.75591031 410.7780472 -177.578125 387.69042969 C-204.15009034 364.8839223 -219.63746585 334.75276951 -224 300 C-224.11201868 297.33768945 -224.18691578 294.7012544 -224.203125 292.0390625 C-224.21167511 290.9158107 -224.21167511 290.9158107 -224.22039795 289.76986694 C-224.22979745 288.18822619 -224.2363617 286.60656629 -224.24023438 285.02490234 C-224.2498333 282.66596736 -224.28085914 280.30794597 -224.3125 277.94921875 C-224.56808681 241.31782721 -209.97911569 208.6538695 -184.60546875 182.53515625 C-168.43466912 167.276143 -147.58186947 156.9314473 -126 152 C-125.30068359 151.83773926 -124.60136719 151.67547852 -123.88085938 151.50830078 C-91.33312961 144.33388082 -57.48611388 148.63459124 -29 166 C-18.36634558 172.91956378 -9.22807997 181.40057337 -1 191 C-0.505 96.455 -0.505 96.455 0 0 Z M-156.31640625 217.4375 C-164.02519141 226.60959663 -169.55310746 236.82881292 -173.375 248.125 C-173.6136377 248.82818359 -173.85227539 249.53136719 -174.09814453 250.25585938 C-177.37941067 260.59078007 -178.36906985 270.94839058 -178.3125 281.75 C-178.30686035 282.88743652 -178.3012207 284.02487305 -178.29541016 285.19677734 C-177.92789296 310.80290142 -168.92283989 333.41429548 -151 352 C-131.04059872 370.68810183 -106.6165667 375.7718655 -80.01464844 375.13623047 C-69.32205789 374.6530376 -59.59719097 371.6531835 -50 367 C-49.06414062 366.54625 -48.12828125 366.0925 -47.1640625 365.625 C-40.44463255 362.1617644 -34.6690585 357.98692788 -29 353 C-28.23816406 352.33355469 -27.47632813 351.66710937 -26.69140625 350.98046875 C-10.38152477 335.74472158 -0.86851765 312.18338823 0 290 C0.0515625 288.86949219 0.103125 287.73898437 0.15625 286.57421875 C0.76056536 261.11743403 -5.77455857 236.33401712 -23 217 C-23.65355469 216.25234375 -24.30710937 215.5046875 -24.98046875 214.734375 C-35.15050199 203.82019299 -47.92128511 196.57709293 -62 192 C-63.03640625 191.66097656 -64.0728125 191.32195312 -65.140625 190.97265625 C-98.03771258 182.18119319 -133.16294378 193.07365416 -156.31640625 217.4375 Z " fill="#231F20" transform="translate(2010,119)"/>
<path d="M0 0 C25.88564995 22.75493713 40.32818144 54.01540891 43.3984375 88.203125 C43.50461118 90.24373137 43.58821056 92.28564613 43.6484375 94.328125 C43.68839844 95.39546875 43.72835938 96.4628125 43.76953125 97.5625 C44.40310575 129.91206857 35.59268073 163.79713404 13.6484375 188.328125 C12.94074219 189.15441406 12.23304688 189.98070312 11.50390625 190.83203125 C-11.07142841 216.72843091 -43.13891466 231.73417902 -77.3515625 234.328125 C-116.03066528 235.89689382 -153.67399366 229.19592557 -183.5390625 202.890625 C-185.15218859 201.37929812 -186.75636901 199.85836761 -188.3515625 198.328125 C-189.18429687 197.55855469 -190.01703125 196.78898438 -190.875 195.99609375 C-214.60160558 173.40106474 -226.46869047 140.24806883 -227.6328125 107.9921875 C-228.45336048 69.34665698 -217.50247359 34.38295282 -190.45849609 6.09790039 C-141.16005348 -44.24016924 -52.87869525 -44.54537651 0 0 Z M-160.3515625 38.328125 C-177.06126537 58.92624929 -183.41726672 85.96915034 -180.91796875 112.05078125 C-178.08727417 137.73503113 -167.88687146 158.8812295 -148.2265625 175.953125 C-131.89657678 188.85723959 -112.73527473 194.75071124 -92.0390625 194.640625 C-90.39212402 194.63325317 -90.39212402 194.63325317 -88.71191406 194.62573242 C-65.03966612 194.28440675 -44.28210006 184.69643656 -27.3515625 168.328125 C-7.90743657 147.86752706 -2.65770371 121.59528352 -3.03515625 94.3203125 C-3.31483396 85.63041005 -4.71618927 77.59752208 -7.3515625 69.328125 C-7.72539063 68.15378906 -8.09921875 66.97945312 -8.484375 65.76953125 C-16.61632164 42.90852894 -32.33553436 26.44938267 -53.76953125 15.59765625 C-90.22009266 -1.08310914 -134.009429 8.36840643 -160.3515625 38.328125 Z " fill="#231F20" transform="translate(1593.3515625,299.671875)"/>
<path d="M0 0 C14.52 0 29.04 0 44 0 C44.0093457 5.00019287 44.01869141 10.00038574 44.02832031 15.15209961 C44.06215723 31.71235177 44.11754487 48.27248078 44.18390274 64.83263302 C44.22359544 74.86848634 44.25603733 84.90426236 44.27099609 94.94018555 C44.28406349 103.69453242 44.31115689 112.44870849 44.35461307 121.20295912 C44.37711416 125.83191415 44.39291756 130.46065943 44.39188385 135.089674 C44.39113046 139.46055208 44.40934946 143.8309685 44.44116783 148.20172691 C44.44957835 149.79260903 44.4514782 151.38354349 44.44580269 152.97443771 C44.40303693 166.82347407 46.03614641 181.09404696 52.6875 193.5 C53.03216309 194.15669678 53.37682617 194.81339355 53.73193359 195.48999023 C59.7310741 206.41458447 68.46431852 212.63024028 80 217 C87.05502859 218.93160772 93.96356657 219.35477393 101.25 219.3125 C102.25780518 219.30758545 103.26561035 219.3026709 104.30395508 219.29760742 C123.16865597 219.00253911 140.91823897 212.9112724 154.5390625 199.5 C176.09783795 174.60739329 177.45529172 142.8543674 177.50611091 111.50097799 C177.5156094 107.56920661 177.54182012 103.63754383 177.56611633 99.70584106 C177.60947396 92.29035895 177.63820827 84.87489829 177.66143972 77.45932877 C177.68865809 69.00435319 177.73255793 60.54948856 177.77772844 52.09459281 C177.87013351 34.72977304 177.93981352 17.36496339 178 0 C192.19 0 206.38 0 221 0 C221.01981934 5.82817383 221.03963867 11.65634766 221.06005859 17.66113281 C221.12748463 37.09097458 221.2050191 56.5207668 221.28752708 75.95055008 C221.33722749 87.71083586 221.38366723 99.47111611 221.421875 111.23144531 C221.45526296 121.50550337 221.49533413 131.77951217 221.54279006 142.0535152 C221.56760129 147.47190466 221.58950374 152.89026342 221.60334396 158.30869293 C221.66662996 182.21409212 222.07589997 206.04636948 223.30965233 229.92296219 C223.37700604 231.23351979 223.37700604 231.23351979 223.44572043 232.5705533 C223.5294648 234.17549434 223.61583651 235.78030196 223.70566583 237.38491392 C224.00192471 242.94897693 224 248.40472177 224 254 C210.47 254 196.94 254 183 254 C181.875 239.375 181.875 239.375 181.68359375 233.82421875 C181.62075195 232.05981445 181.62075195 232.05981445 181.55664062 230.25976562 C181.51732422 229.08091797 181.47800781 227.90207031 181.4375 226.6875 C181.39431641 225.45837891 181.35113281 224.22925781 181.30664062 222.96289062 C181.20201806 219.97533514 181.09983673 216.98771857 181 214 C180.54399414 214.73460449 180.08798828 215.46920898 179.61816406 216.22607422 C166.40503398 237.29255389 147.30346702 251.3732838 123.16699219 257.51245117 C114.21713782 259.52606757 105.54141322 260.36085335 96.375 260.3125 C95.24271973 260.30686035 94.11043945 260.3012207 92.94384766 260.29541016 C67.08492738 259.9251066 43.95021005 252.26684603 25 234 C2.69784957 209.23157702 -0.19433623 176.33881502 -0.11352539 144.51782227 C-0.11324246 142.92942303 -0.11340331 141.34102367 -0.1139679 139.75262451 C-0.11425175 135.4912402 -0.10842241 131.22988473 -0.10139394 126.96850705 C-0.09509105 122.49625375 -0.09455116 118.02399961 -0.09336853 113.55174255 C-0.09027549 105.1055276 -0.08208974 96.65932579 -0.07201904 88.21311659 C-0.06079455 78.58780253 -0.05533157 68.9624878 -0.05032361 59.33716881 C-0.03990517 39.55810361 -0.02158524 19.77905638 0 0 Z " fill="#231F20" transform="translate(656,274)"/>
<path d="M0 0 C20.70034609 18.08920821 29.67514105 40.82475292 32.3828125 67.87109375 C32.46655991 70.37994481 32.50489132 72.89063112 32.50306702 75.40087891 C32.50434865 76.47081384 32.50434865 76.47081384 32.50565618 77.56236362 C32.50729002 79.92832088 32.5018243 82.29420563 32.49633789 84.66015625 C32.49605554 86.36574807 32.49621469 88.07134001 32.4967804 89.77693176 C32.4970665 94.389958 32.49119999 99.00295807 32.48420644 103.61597824 C32.47794177 108.44328426 32.47736664 113.27059093 32.47618103 118.09790039 C32.47307689 127.2314177 32.46487587 136.36492299 32.45483154 145.49843502 C32.44364192 155.89987203 32.43815278 166.30130963 32.43313611 176.70275116 C32.42269248 198.09220688 32.4043584 219.48164613 32.3828125 240.87109375 C18.1928125 240.87109375 4.0028125 240.87109375 -10.6171875 240.87109375 C-10.63906128 233.49926758 -10.63906128 233.49926758 -10.66137695 225.97851562 C-10.71180791 209.70564865 -10.77827005 193.43287595 -10.85290241 177.16010284 C-10.8977449 167.29798964 -10.93718579 157.43591161 -10.96362305 147.57373047 C-10.98669708 138.97140215 -11.02019892 130.36918625 -11.06588906 121.76694727 C-11.08969524 117.21798224 -11.10850615 112.66912769 -11.11480141 108.12010193 C-11.12090989 103.8256238 -11.14111369 99.53142785 -11.17146301 95.23705482 C-11.18015197 93.6731647 -11.18398516 92.10923756 -11.18219566 90.54532433 C-11.16628985 70.20392811 -14.45027649 50.1867112 -28.64453125 34.65234375 C-40.3905158 23.26744734 -55.30138924 21.46208416 -70.8972168 21.50537109 C-90.03898993 21.80923089 -106.6125274 27.43808414 -120.66796875 40.82421875 C-141.25459293 62.41019361 -144.68517339 93.9273626 -144.82250977 122.35058594 C-144.83240936 123.63980957 -144.84230896 124.9290332 -144.85250854 126.25732422 C-144.87924416 129.75235097 -144.90042073 133.24739079 -144.92051053 136.7424612 C-144.94256649 140.40997559 -144.96985806 144.07745116 -144.99656677 147.74493408 C-145.04623127 154.67187628 -145.09126603 161.59884033 -145.13458914 168.52582479 C-145.18418766 176.41956983 -145.23902098 184.31327588 -145.29426873 192.20698309 C-145.40768525 208.42831848 -145.51391933 224.64969009 -145.6171875 240.87109375 C-159.8071875 240.87109375 -173.9971875 240.87109375 -188.6171875 240.87109375 C-188.64224365 234.29042969 -188.6672998 227.70976563 -188.69311523 220.9296875 C-188.77665285 199.16869845 -188.86528325 177.40773233 -188.95652676 155.64677429 C-189.01171462 142.45528008 -189.0651722 129.26378316 -189.11450195 116.07226562 C-189.15752138 104.5694144 -189.20384284 93.06658192 -189.25406605 81.5637598 C-189.2805247 75.47780527 -189.30537286 69.3918541 -189.32626152 63.30587769 C-189.34601136 57.56694081 -189.37020659 51.82803915 -189.39767838 46.08913422 C-189.40695266 43.99308672 -189.41466132 41.89703156 -189.42060661 39.80097198 C-189.44713434 30.7209617 -189.49748868 21.68083061 -190.13002014 12.62036133 C-190.66863999 4.05264991 -190.6171875 -4.54428102 -190.6171875 -13.12890625 C-177.0871875 -13.12890625 -163.5571875 -13.12890625 -149.6171875 -13.12890625 C-148.9571875 -0.25890625 -148.2971875 12.61109375 -147.6171875 25.87109375 C-144.9771875 21.91109375 -142.3371875 17.95109375 -139.6171875 13.87109375 C-107.03913499 -25.11648063 -39.65546582 -32.25705802 0 0 Z " fill="#231F20" transform="translate(2417.6171875,287.12890625)"/>
<path d="M0 0 C2.50806216 2.19121412 4.89316939 4.45616135 7.25390625 6.8046875 C7.9396875 7.45566406 8.62546875 8.10664063 9.33203125 8.77734375 C28.9571704 28.8274367 32.78629764 60.04367328 32.59448242 86.75073242 C32.59363299 88.44809453 32.59411742 90.14545774 32.59580994 91.84281921 C32.59665901 96.38297207 32.57921293 100.92287961 32.55808806 105.46297622 C32.53913657 110.23281671 32.53755645 115.00266489 32.53401184 119.77253723 C32.52474498 128.77469669 32.50020501 137.77674484 32.46996337 146.77885562 C32.43625092 157.04027024 32.41989131 167.3016906 32.40487707 177.56314695 C32.37364968 198.6437361 32.31870598 219.72417297 32.25390625 240.8046875 C18.06390625 240.8046875 3.87390625 240.8046875 -10.74609375 240.8046875 C-10.76067627 235.9256665 -10.77525879 231.04664551 -10.7902832 226.01977539 C-10.84072998 209.85867394 -10.90719513 193.69766727 -10.98180866 177.53666019 C-11.02663742 167.74295699 -11.06608135 157.9492891 -11.0925293 148.15551758 C-11.11561457 139.61214297 -11.1491286 131.06888136 -11.19479531 122.52559656 C-11.21858656 118.00845769 -11.23740713 113.49142974 -11.24370766 108.97422981 C-11.24982307 104.70847519 -11.27005072 100.44300385 -11.30036926 96.17735481 C-11.30904742 94.62517272 -11.31289376 93.07295345 -11.31110191 91.52074814 C-11.29912166 76.33208653 -12.79224923 61.55343152 -19.74609375 47.8046875 C-20.39191406 46.49757813 -20.39191406 46.49757813 -21.05078125 45.1640625 C-27.01528978 34.17858351 -35.8784345 27.46645597 -47.74609375 23.8046875 C-67.56097808 18.19660871 -90.4068221 20.98554482 -108.45703125 30.6953125 C-126.21581672 42.08455734 -136.07139497 60.15148823 -140.97265625 80.23828125 C-143.86860819 93.59183743 -144.88668892 106.70753291 -144.95141602 120.35424805 C-144.96131561 121.66283279 -144.97121521 122.97141754 -144.98141479 124.31965637 C-145.00819027 127.87259189 -145.02934592 131.42554033 -145.04941678 134.9785192 C-145.0714474 138.70476298 -145.09875166 142.43096823 -145.12547302 146.15718079 C-145.17517109 153.19748756 -145.22019374 160.23781598 -145.26349539 167.27816468 C-145.31306476 175.30005803 -145.36790913 183.32191267 -145.42317498 191.34376848 C-145.53664319 207.83070694 -145.64286117 224.31768129 -145.74609375 240.8046875 C-159.93609375 240.8046875 -174.12609375 240.8046875 -188.74609375 240.8046875 C-188.7711499 234.28460937 -188.79620605 227.76453125 -188.82202148 221.046875 C-188.9055617 199.4854555 -188.99419178 177.92405912 -189.08543301 156.3626709 C-189.14061919 143.29224508 -189.19407648 130.22181653 -189.2434082 117.15136719 C-189.2864297 105.75399125 -189.33275165 94.35663422 -189.3829723 82.95928764 C-189.4094293 76.92922452 -189.43427738 70.89916479 -189.45516777 64.86907959 C-189.47491982 59.18267218 -189.49911562 53.49630028 -189.52658463 47.80992508 C-189.53585776 45.73322833 -189.54356681 43.65652385 -189.54951286 41.57981491 C-189.57600542 32.59659082 -189.62438701 23.65374473 -190.25892639 14.69042969 C-190.83216528 5.41145391 -190.74609375 -3.89864673 -190.74609375 -13.1953125 C-177.21609375 -13.1953125 -163.68609375 -13.1953125 -149.74609375 -13.1953125 C-149.08609375 -0.3253125 -148.42609375 12.5446875 -147.74609375 25.8046875 C-144.28109375 20.3596875 -144.28109375 20.3596875 -140.74609375 14.8046875 C-138.59359512 12.27750424 -136.54281366 9.97588528 -134.18359375 7.6796875 C-133.58353516 7.09058594 -132.98347656 6.50148438 -132.36523438 5.89453125 C-98.3962428 -26.48050347 -36.74592991 -29.37583586 0 0 Z " fill="#231F20" transform="translate(1129.74609375,287.1953125)"/>
<path d="M0 0 C0.69420044 -0.00328308 1.38840088 -0.00656616 2.1036377 -0.00994873 C25.58727823 -0.04598118 25.58727823 -0.04598118 35.125 6.3125 C34.51871448 14.94101408 33.49343451 23.45074099 32.1875 32 C32.01798828 33.17755859 31.84847656 34.35511719 31.67382812 35.56835938 C31.50431641 36.68404297 31.33480469 37.79972656 31.16015625 38.94921875 C31.0094165 39.95686279 30.85867676 40.96450684 30.70336914 42.00268555 C30.41707642 43.1460437 30.41707642 43.1460437 30.125 44.3125 C27.00811363 45.87094319 24.83549987 44.44404291 21.5625 43.4375 C7.23886778 39.35202335 -9.09136378 38.30617959 -22.78515625 45.06640625 C-32.99030941 51.15134804 -38.44945937 60.1209763 -41.33203125 71.4765625 C-42.70649066 78.65539364 -43.12160583 85.77294427 -43.375 93.0625 C-43.41488037 94.16053955 -43.45476074 95.2585791 -43.49584961 96.38989258 C-44.22045208 118.02203077 -44.48561046 139.67356676 -44.875 161.3125 C-24.415 161.3125 -3.955 161.3125 17.125 161.3125 C17.125 173.5225 17.125 185.7325 17.125 198.3125 C-3.335 198.3125 -23.795 198.3125 -44.875 198.3125 C-44.875 269.9225 -44.875 341.5325 -44.875 415.3125 C-59.065 415.3125 -73.255 415.3125 -87.875 415.3125 C-87.875 343.7025 -87.875 272.0925 -87.875 198.3125 C-106.025 198.3125 -124.175 198.3125 -142.875 198.3125 C-142.875 186.1025 -142.875 173.8925 -142.875 161.3125 C-124.725 161.3125 -106.575 161.3125 -87.875 161.3125 C-87.89820313 157.043125 -87.92140625 152.77375 -87.9453125 148.375 C-87.95824268 144.89485284 -87.96906384 141.41471278 -87.97850037 137.93455505 C-87.98890859 134.30283505 -88.00272537 130.67121378 -88.02587891 127.03955078 C-88.50452691 49.81000351 -88.50452691 49.81000351 -61.875 21.3125 C-45.2371476 5.05212069 -22.50775979 0.08635028 0 0 Z " fill="#231F20" transform="translate(1334.875,112.6875)"/>
<path d="M0 0 C8.40426139 -0.30149817 19.9778679 0.33854332 27.61328125 4.15625 C27.61328125 25.27625 27.61328125 46.39625 27.61328125 68.15625 C20.68328125 66.83625 13.75328125 65.51625 6.61328125 64.15625 C2.65618657 63.84812552 -0.91422236 63.61248127 -4.82421875 63.71875 C-6.18776489 63.73856934 -6.18776489 63.73856934 -7.57885742 63.75878906 C-26.20146572 64.25420296 -43.25982042 70.82293241 -56.25390625 84.515625 C-68.9780387 100.26931279 -72.67261552 118.73863938 -72.70556641 138.53198242 C-72.71488617 139.94245973 -72.72505782 141.35293162 -72.73600769 142.76339722 C-72.76309121 146.55806796 -72.77839212 150.35270205 -72.79143572 154.14744353 C-72.80716201 158.12595133 -72.83392146 162.10438528 -72.85946655 166.08283997 C-72.90608735 173.6012555 -72.94291178 181.11968518 -72.97613943 188.63817054 C-73.0216611 198.80874957 -73.08247247 208.97923675 -73.14238739 219.14973927 C-73.23625696 235.15186326 -73.30983356 251.15401451 -73.38671875 267.15625 C-94.83671875 267.15625 -116.28671875 267.15625 -138.38671875 267.15625 C-138.38671875 181.35625 -138.38671875 95.55625 -138.38671875 7.15625 C-116.93671875 7.15625 -95.48671875 7.15625 -73.38671875 7.15625 C-73.05671875 19.69625 -72.72671875 32.23625 -72.38671875 45.15625 C-70.07671875 41.52625 -67.76671875 37.89625 -65.38671875 34.15625 C-51.25648951 14.56141754 -32.21681803 4.81936731 -8.765625 0.6953125 C-5.84693327 0.31031573 -2.93560267 0.19218348 0 0 Z " fill="#06B0F2" transform="translate(3762.38671875,260.84375)"/>
<path d="M0 0 C14.19 0 28.38 0 43 0 C43 134.97 43 269.94 43 409 C28.81 409 14.62 409 0 409 C0 274.03 0 139.06 0 0 Z " fill="#231F20" transform="translate(1690,119)"/>
<path d="M0 0 C14.19 0 28.38 0 43 0 C43 83.82 43 167.64 43 254 C28.81 254 14.62 254 0 254 C0 170.18 0 86.36 0 0 Z " fill="#231F20" transform="translate(2119,274)"/>
<path d="M0 0 C8.08104405 4.78409032 13.72545409 11.19659818 16.25 20.33203125 C17.452705 30.74714072 16.87144668 39.8269063 10.70703125 48.50390625 C6.11459204 54.26284604 1.14201524 57.03469284 -5.75 59.33203125 C-16.92208715 60.05934962 -26.71237713 60.01239871 -36.0625 53.08203125 C-42.93885677 46.0457592 -45.78800688 38.80447191 -46.0625 28.95703125 C-45.87877636 19.52228185 -43.40756833 12.17693375 -36.75 5.33203125 C-26.11446431 -3.26407376 -12.74617338 -5.93284057 0 0 Z " fill="#231F20" transform="translate(2154.75,147.66796875)"/>
<path d="M0 0 C10.60234702 7.73167545 17.79603511 17.6014581 20.6875 30.5625 C22.79299228 44.76878855 19.85180312 57.32854019 11.875 69.31640625 C5.12340267 77.89016763 -5.92182367 84.63857459 -16.75 86.25 C-32.73536898 87.37383407 -44.71974161 85.1497439 -57.75 75.25 C-66.91605509 67.10435028 -72.10525078 55.32337994 -72.96484375 43.2265625 C-73.32537729 31.0837928 -70.77927684 21.18794312 -63.75 11.25 C-63.30914062 10.61320312 -62.86828125 9.97640625 -62.4140625 9.3203125 C-47.94995905 -9.49138274 -19.32022292 -12.00543564 0 0 Z M-43.75 5.25 C-45.296875 6.0853125 -45.296875 6.0853125 -46.875 6.9375 C-56.66741002 14.81400371 -62.3191361 24.15839768 -63.75 36.75 C-64.24260577 49.24427363 -59.88943553 59.88160829 -51.5 69.0625 C-44.52483509 75.57675093 -35.33454308 79.17938828 -25.8359375 79.28125 C-13.88876537 78.67632989 -4.58270081 73.68869486 3.5 64.9375 C11.50820964 55.11816938 12.26929851 43.4104021 11.25 31.25 C9.19523311 20.96378742 3.00261883 12.42679078 -5.61328125 6.53515625 C-17.39162081 -0.54907358 -31.52493838 -1.49729362 -43.75 5.25 Z " fill="#06B0F2" transform="translate(4199.75,441.75)"/>
<path d="M0 0 C6.6825 -0.12375 6.6825 -0.12375 13.5 -0.25 C15.58344727 -0.30462402 15.58344727 -0.30462402 17.70898438 -0.36035156 C24.97113919 -0.42530448 29.87827492 -0.02412305 36 4 C40.09287193 8.35692818 40.30332533 12.7596249 40.203125 18.49609375 C39.91273754 22.07567766 39.18491296 24.13230174 37 27 C33.93301546 29.00702465 30.73358711 31 27 31 C27.52956299 31.82407349 27.52956299 31.82407349 28.06982422 32.66479492 C29.6759467 35.16957488 31.27551899 37.67847429 32.875 40.1875 C33.43058594 41.05181641 33.98617187 41.91613281 34.55859375 42.80664062 C35.09355469 43.64775391 35.62851562 44.48886719 36.1796875 45.35546875 C36.67194824 46.12528076 37.16420898 46.89509277 37.67138672 47.68823242 C39.03578589 50.06226692 40.04463417 52.43716179 41 55 C37.46817597 55.70111203 34.50930665 55.8968798 31 55 C27.8603735 51.80161044 25.9455988 48.0112537 23.875 44.0625 C22.77299969 41.99784744 21.64617225 39.94620981 20.4921875 37.91015625 C20.01120605 36.99371338 19.53022461 36.07727051 19.03466797 35.13305664 C16.56005655 32.08863358 16.56005655 32.08863358 9 32 C9 39.59 9 47.18 9 55 C6.03 55 3.06 55 0 55 C0 36.85 0 18.7 0 0 Z M9 8 C9 13.28 9 18.56 9 24 C11.371875 24.061875 13.74375 24.12375 16.1875 24.1875 C16.92508545 24.21481201 17.6626709 24.24212402 18.42260742 24.27026367 C22.83935173 24.32573392 25.52119467 23.72835006 29 21 C31.34522935 18.11487022 31.34522935 18.11487022 30.875 14.5 C30.30599622 11.08239063 30.30599622 11.08239063 28.4921875 9.29296875 C24.78012679 7.36711907 21.36260176 7.67950542 17.25 7.8125 C16.45722656 7.82603516 15.66445313 7.83957031 14.84765625 7.85351562 C12.89814436 7.88874777 10.94898374 7.94255179 9 8 Z " fill="#06B0F2" transform="translate(4156,454)"/>
</svg>
